<?xml version="1.0" encoding="UTF-8" standalone="no"?>
<!DOCTYPE svg PUBLIC "-//W3C//DTD SVG 1.1//EN"
 "http://www.w3.org/Graphics/SVG/1.1/DTD/svg11.dtd">
<!-- Generated by graphviz version 2.40.1 (20161225.0304)
 -->
<!-- Title: dependencies Pages: 1 -->
<svg width="1650pt" height="284pt"
 viewBox="0.00 0.00 1650.00 284.00" xmlns="http://www.w3.org/2000/svg" xmlns:xlink="http://www.w3.org/1999/xlink">
<g id="graph0" class="graph" transform="scale(1 1) rotate(0) translate(4 280)">
<title>dependencies</title>
<polygon fill="#ffffff" stroke="transparent" points="-4,4 -4,-280 1646,-280 1646,4 -4,4"/>
<text text-anchor="start" x="800.0091" y="-42.4" font-family="sans-serif" font-weight="bold" font-size="14.00" fill="#000000">Legend</text>
<polygon fill="#ffffb3" stroke="transparent" points="587,-10 587,-30 607,-30 607,-10 587,-10"/>
<text text-anchor="start" x="610.629" y="-15.4" font-family="sans-serif" font-size="14.00" fill="#000000"> &#160;Declarations</text>
<polygon fill="#8dd3c7" stroke="transparent" points="700,-10 700,-30 720,-30 720,-10 700,-10"/>
<text text-anchor="start" x="723.7251" y="-15.4" font-family="sans-serif" font-size="14.00" fill="#000000"> &#160;Module</text>
<polygon fill="#80b1d3" stroke="transparent" points="786,-10 786,-30 806,-30 806,-10 786,-10"/>
<text text-anchor="start" x="809.7812" y="-15.4" font-family="sans-serif" font-size="14.00" fill="#000000"> &#160;Bootstrap</text>
<polygon fill="#fdb462" stroke="transparent" points="883,-10 883,-30 903,-30 903,-10 883,-10"/>
<text text-anchor="start" x="906.6732" y="-15.4" font-family="sans-serif" font-size="14.00" fill="#000000"> &#160;Providers</text>
<polygon fill="#fb8072" stroke="transparent" points="979,-10 979,-30 999,-30 999,-10 979,-10"/>
<text text-anchor="start" x="1002.7258" y="-15.4" font-family="sans-serif" font-size="14.00" fill="#000000"> &#160;Exports</text>
<g id="clust1" class="cluster">
<title>cluster_AppModule</title>
<polygon fill="none" stroke="#000000" stroke-dasharray="1,5" points="8,-70 8,-268 1634,-268 1634,-70 8,-70"/>
</g>
<g id="clust2" class="cluster">
<title>cluster_AppModule_declarations</title>
<polygon fill="none" stroke="#000000" points="342,-78 342,-130 1626,-130 1626,-78 342,-78"/>
</g>
<g id="clust11" class="cluster">
<title>cluster_AppModule_imports</title>
<polygon fill="none" stroke="#000000" points="190,-78 190,-130 334,-130 334,-78 190,-78"/>
</g>
<g id="clust13" class="cluster">
<title>cluster_AppModule_bootstrap</title>
<polygon fill="none" stroke="#000000" points="796,-208 796,-260 920,-260 920,-208 796,-208"/>
</g>
<g id="clust14" class="cluster">
<title>cluster_AppModule_providers</title>
<polygon fill="none" stroke="#000000" points="16,-78 16,-130 182,-130 182,-78 16,-78"/>
</g>
<!-- AnnonceComponent -->
<g id="node1" class="node">
<title>AnnonceComponent</title>
<polygon fill="#ffffb3" stroke="#000000" points="1617.8683,-122 1486.1317,-122 1486.1317,-86 1617.8683,-86 1617.8683,-122"/>
<text text-anchor="middle" x="1552" y="-99.8" font-family="Times,serif" font-size="14.00" fill="#000000">AnnonceComponent</text>
</g>
<!-- AppModule -->
<g id="node9" class="node">
<title>AppModule</title>
<polygon fill="#8dd3c7" stroke="#000000" points="899.6571,-187 896.6571,-191 875.6571,-191 872.6571,-187 816.3429,-187 816.3429,-151 899.6571,-151 899.6571,-187"/>
<text text-anchor="middle" x="858" y="-164.8" font-family="Times,serif" font-size="14.00" fill="#000000">AppModule</text>
</g>
<!-- AnnonceComponent&#45;&gt;AppModule -->
<g id="edge1" class="edge">
<title>AnnonceComponent&#45;&gt;AppModule</title>
<path fill="none" stroke="#000000" d="M1552,-122.0109C1552,-144.4852 1552,-180 1552,-180 1552,-180 909.8499,-180 909.8499,-180"/>
<polygon fill="#000000" stroke="#000000" points="909.85,-176.5001 899.8499,-180 909.8499,-183.5001 909.85,-176.5001"/>
</g>
<!-- AppComponent -->
<g id="node2" class="node">
<title>AppComponent</title>
<polygon fill="#ffffb3" stroke="#000000" points="1467.9399,-122 1362.0601,-122 1362.0601,-86 1467.9399,-86 1467.9399,-122"/>
<text text-anchor="middle" x="1415" y="-99.8" font-family="Times,serif" font-size="14.00" fill="#000000">AppComponent</text>
</g>
<!-- AppComponent&#45;&gt;AppModule -->
<g id="edge2" class="edge">
<title>AppComponent&#45;&gt;AppModule</title>
<path fill="none" stroke="#000000" d="M1415,-122.1289C1415,-142.5724 1415,-173 1415,-173 1415,-173 909.8655,-173 909.8655,-173"/>
<polygon fill="#000000" stroke="#000000" points="909.8656,-169.5001 899.8655,-173 909.8655,-176.5001 909.8656,-169.5001"/>
</g>
<!-- DetaljeretAnnonceComponent -->
<g id="node3" class="node">
<title>DetaljeretAnnonceComponent</title>
<polygon fill="#ffffb3" stroke="#000000" points="1344.5562,-122 1157.4438,-122 1157.4438,-86 1344.5562,-86 1344.5562,-122"/>
<text text-anchor="middle" x="1251" y="-99.8" font-family="Times,serif" font-size="14.00" fill="#000000">DetaljeretAnnonceComponent</text>
</g>
<!-- DetaljeretAnnonceComponent&#45;&gt;AppModule -->
<g id="edge3" class="edge">
<title>DetaljeretAnnonceComponent&#45;&gt;AppModule</title>
<path fill="none" stroke="#000000" d="M1251,-122.2667C1251,-140.5552 1251,-166 1251,-166 1251,-166 909.6858,-166 909.6858,-166"/>
<polygon fill="#000000" stroke="#000000" points="909.6859,-162.5001 899.6858,-166 909.6858,-169.5001 909.6859,-162.5001"/>
</g>
<!-- HeaderComponent -->
<g id="node4" class="node">
<title>HeaderComponent</title>
<polygon fill="#ffffb3" stroke="#000000" points="1139.7437,-122 1018.2563,-122 1018.2563,-86 1139.7437,-86 1139.7437,-122"/>
<text text-anchor="middle" x="1079" y="-99.8" font-family="Times,serif" font-size="14.00" fill="#000000">HeaderComponent</text>
</g>
<!-- HeaderComponent&#45;&gt;AppModule -->
<g id="edge4" class="edge">
<title>HeaderComponent&#45;&gt;AppModule</title>
<path fill="none" stroke="#000000" d="M1079,-122.0091C1079,-138.0494 1079,-159 1079,-159 1079,-159 909.8282,-159 909.8282,-159"/>
<polygon fill="#000000" stroke="#000000" points="909.8283,-155.5001 899.8282,-159 909.8282,-162.5001 909.8283,-155.5001"/>
</g>
<!-- LogIndComponent -->
<g id="node5" class="node">
<title>LogIndComponent</title>
<polygon fill="#ffffb3" stroke="#000000" points="1000.0464,-122 877.9536,-122 877.9536,-86 1000.0464,-86 1000.0464,-122"/>
<text text-anchor="middle" x="939" y="-99.8" font-family="Times,serif" font-size="14.00" fill="#000000">LogIndComponent</text>
</g>
<!-- LogIndComponent&#45;&gt;AppModule -->
<g id="edge5" class="edge">
<title>LogIndComponent&#45;&gt;AppModule</title>
<path fill="none" stroke="#000000" d="M888.7777,-122.1061C888.7777,-122.1061 888.7777,-140.991 888.7777,-140.991"/>
<polygon fill="#000000" stroke="#000000" points="885.2778,-140.9909 888.7777,-150.991 892.2778,-140.991 885.2778,-140.9909"/>
</g>
<!-- OpretAnnonceComponent -->
<g id="node6" class="node">
<title>OpretAnnonceComponent</title>
<polygon fill="#ffffb3" stroke="#000000" points="859.7408,-122 696.2592,-122 696.2592,-86 859.7408,-86 859.7408,-122"/>
<text text-anchor="middle" x="778" y="-99.8" font-family="Times,serif" font-size="14.00" fill="#000000">OpretAnnonceComponent</text>
</g>
<!-- OpretAnnonceComponent&#45;&gt;AppModule -->
<g id="edge6" class="edge">
<title>OpretAnnonceComponent&#45;&gt;AppModule</title>
<path fill="none" stroke="#000000" d="M838.0211,-122.1061C838.0211,-122.1061 838.0211,-140.991 838.0211,-140.991"/>
<polygon fill="#000000" stroke="#000000" points="834.5211,-140.9909 838.0211,-150.991 841.5211,-140.991 834.5211,-140.9909"/>
</g>
<!-- StartsideComponent -->
<g id="node7" class="node">
<title>StartsideComponent</title>
<polygon fill="#ffffb3" stroke="#000000" points="678.3216,-122 547.6784,-122 547.6784,-86 678.3216,-86 678.3216,-122"/>
<text text-anchor="middle" x="613" y="-99.8" font-family="Times,serif" font-size="14.00" fill="#000000">StartsideComponent</text>
</g>
<!-- StartsideComponent&#45;&gt;AppModule -->
<g id="edge7" class="edge">
<title>StartsideComponent&#45;&gt;AppModule</title>
<path fill="none" stroke="#000000" d="M613,-122.0091C613,-138.0494 613,-159 613,-159 613,-159 806.1614,-159 806.1614,-159"/>
<polygon fill="#000000" stroke="#000000" points="806.1614,-162.5001 816.1614,-159 806.1613,-155.5001 806.1614,-162.5001"/>
</g>
<!-- StartsideKategoriComponent -->
<g id="node8" class="node">
<title>StartsideKategoriComponent</title>
<polygon fill="#ffffb3" stroke="#000000" points="529.799,-122 350.201,-122 350.201,-86 529.799,-86 529.799,-122"/>
<text text-anchor="middle" x="440" y="-99.8" font-family="Times,serif" font-size="14.00" fill="#000000">StartsideKategoriComponent</text>
</g>
<!-- StartsideKategoriComponent&#45;&gt;AppModule -->
<g id="edge8" class="edge">
<title>StartsideKategoriComponent&#45;&gt;AppModule</title>
<path fill="none" stroke="#000000" d="M440,-122.2667C440,-140.5552 440,-166 440,-166 440,-166 806.0067,-166 806.0067,-166"/>
<polygon fill="#000000" stroke="#000000" points="806.0068,-169.5001 816.0067,-166 806.0067,-162.5001 806.0068,-169.5001"/>
</g>
<!-- AppComponent  -->
<g id="node11" class="node">
<title>AppComponent </title>
<polygon fill="#80b1d3" stroke="#000000" points="912.439,-252 803.561,-252 803.561,-216 912.439,-216 912.439,-252"/>
<text text-anchor="middle" x="858" y="-229.8" font-family="Times,serif" font-size="14.00" fill="#000000">AppComponent </text>
</g>
<!-- AppModule&#45;&gt;AppComponent  -->
<g id="edge10" class="edge">
<title>AppModule&#45;&gt;AppComponent </title>
<path fill="none" stroke="#000000" stroke-dasharray="1,5" d="M858,-187.1061C858,-187.1061 858,-205.991 858,-205.991"/>
<polygon fill="#000000" stroke="#000000" points="854.5001,-205.9909 858,-215.991 861.5001,-205.991 854.5001,-205.9909"/>
</g>
<!-- AppRoutingModule -->
<g id="node10" class="node">
<title>AppRoutingModule</title>
<polygon fill="#8dd3c7" stroke="#000000" points="326.2744,-122 323.2744,-126 302.2744,-126 299.2744,-122 197.7256,-122 197.7256,-86 326.2744,-86 326.2744,-122"/>
<text text-anchor="middle" x="262" y="-99.8" font-family="Times,serif" font-size="14.00" fill="#000000">AppRoutingModule</text>
</g>
<!-- AppRoutingModule&#45;&gt;AppModule -->
<g id="edge9" class="edge">
<title>AppRoutingModule&#45;&gt;AppModule</title>
<path fill="none" stroke="#000000" d="M262,-122.1289C262,-142.5724 262,-173 262,-173 262,-173 806.0904,-173 806.0904,-173"/>
<polygon fill="#000000" stroke="#000000" points="806.0905,-176.5001 816.0904,-173 806.0904,-169.5001 806.0905,-176.5001"/>
</g>
<!-- AnnonceService -->
<g id="node12" class="node">
<title>AnnonceService</title>
<ellipse fill="#fdb462" stroke="#000000" cx="99" cy="-104" rx="74.7014" ry="18"/>
<text text-anchor="middle" x="99" y="-99.8" font-family="Times,serif" font-size="14.00" fill="#000000">AnnonceService</text>
</g>
<!-- AnnonceService&#45;&gt;AppModule -->
<g id="edge11" class="edge">
<title>AnnonceService&#45;&gt;AppModule</title>
<path fill="none" stroke="#000000" d="M99,-122.0109C99,-144.4852 99,-180 99,-180 99,-180 806.1117,-180 806.1117,-180"/>
<polygon fill="#000000" stroke="#000000" points="806.1118,-183.5001 816.1117,-180 806.1117,-176.5001 806.1118,-183.5001"/>
</g>
</g>
</svg>
